<svg xmlns="http://www.w3.org/2000/svg" xmlns:xlink="http://www.w3.org/1999/xlink" viewBox="0 0 146.79 90.21"><defs><style>.cls-1,.cls-2{fill-rule:evenodd;}.cls-1{fill:url(#GradientFill_2);}.cls-2{fill:url(#GradientFill_2-2);}</style><linearGradient id="GradientFill_2" x1="73.4" y1="69.8" x2="73.4" gradientUnits="userSpaceOnUse"><stop offset="0" stop-color="#009247"/><stop offset="1" stop-color="#00ab4e"/></linearGradient><linearGradient id="GradientFill_2-2" x1="73.4" y1="90.01" x2="73.4" y2="76.91" xlink:href="#GradientFill_2"/></defs><title>Asset 4</title><g id="Layer_2" data-name="Layer 2"><g id="Layer_1-2" data-name="Layer 1"><path class="cls-1" d="M63.91,57.66a1.59,1.59,0,0,0,.48,1.15h0a1.61,1.61,0,0,0,1.15.48,1.63,1.63,0,0,0,1.15-2.78h0A1.61,1.61,0,0,0,65.54,56a1.62,1.62,0,0,0-1.15.47h0a1.59,1.59,0,0,0-.48,1.15ZM87.75,43.38a4.5,4.5,0,0,0-1.32-3.2h0a4.5,4.5,0,0,0-6.39,0A4.36,4.36,0,0,0,79,41.93H51.25c.8-4,2.45-6.48,4.39-9.39.73-1.09,1.5-2.23,2.23-3.45a24.69,24.69,0,0,1,6.4-7.47,16.08,16.08,0,0,1,18.25,0,23,23,0,0,1,5.49,6H75.28a4.5,4.5,0,0,0-1.09-1.75h0a4.51,4.51,0,0,0-6.39,0h0a4.49,4.49,0,0,0,0,6.38h0a4.53,4.53,0,0,0,7.48-1.75H89.83c.44.69.89,1.36,1.32,2,2.75,4.11,4.91,7.34,4.91,15.34a18.41,18.41,0,0,1-2.2,8.32h-24a4.62,4.62,0,0,0-1.09-1.75h0a4.51,4.51,0,0,0-6.39,0h0a4.49,4.49,0,0,0,0,6.38h0a4.53,4.53,0,0,0,6.39,0,4.62,4.62,0,0,0,1.09-1.75H92.1l-.13.17a25.31,25.31,0,0,1-10.21,8.37c-1.27.56-2.84.2-4.47-.17a17.73,17.73,0,0,0-3.89-.58,16.9,16.9,0,0,0-3.89.59c-1.61.38-3.15.74-4.39.21a25.42,25.42,0,0,1-10.27-8.38,20.16,20.16,0,0,1-4.12-11.43c0-1.11,0-2.13.12-3.07H79A4.36,4.36,0,0,0,80,46.57a4.5,4.5,0,0,0,6.39,0h0a4.5,4.5,0,0,0,1.32-3.19Zm-3.36,1.15a1.63,1.63,0,0,0,0-2.31h0a1.63,1.63,0,0,0-1.16-.47,1.63,1.63,0,1,0,0,3.25,1.63,1.63,0,0,0,1.16-.47ZM73.4,0a4.51,4.51,0,0,1,3.19,1.33h0a4.51,4.51,0,0,1,0,6.4,4.47,4.47,0,0,1-1.75,1.09V11h7.09A4.52,4.52,0,0,1,83,9.27h0a4.5,4.5,0,0,1,6.39,0h0A4.52,4.52,0,1,1,83,15.66h0a4.5,4.5,0,0,1-1.09-1.75H74.84v2a17.49,17.49,0,0,1,9.38,3.34A27.7,27.7,0,0,1,91.4,27.6c.77,1.27,1.48,2.33,2.15,3.34,3,4.53,5.4,8.09,5.4,17A22.94,22.94,0,0,1,94.31,61a28.25,28.25,0,0,1-11.4,9.34c-2.13.93-4.15.47-6.25,0a15.4,15.4,0,0,0-3.26-.49,14.26,14.26,0,0,0-3.24.51c-2.07.48-4.06,1-6.18,0A28.34,28.34,0,0,1,52.51,61a23.05,23.05,0,0,1-4.67-13.12c0-8.86,2.38-12.42,5.4-16.95.68-1,1.39-2.07,2.16-3.34a27.43,27.43,0,0,1,7.18-8.32A17.46,17.46,0,0,1,72,15.94V8.81A4.54,4.54,0,0,1,70.2,7.72h0a4.53,4.53,0,0,1,0-6.39h0A4.54,4.54,0,0,1,73.4,0Zm1.15,3.36a1.62,1.62,0,0,0-1.15-.47,1.61,1.61,0,0,0-1.15.47h0a1.62,1.62,0,0,0-.47,1.15,1.61,1.61,0,0,0,.47,1.15h0a1.59,1.59,0,0,0,1.15.48,1.61,1.61,0,0,0,1.15-.48,1.62,1.62,0,0,0,0-2.3ZM87.36,13.62a1.63,1.63,0,0,0,.48-1.16,1.61,1.61,0,0,0-.48-1.15h0a1.64,1.64,0,0,0-2.3,0h0a1.62,1.62,0,0,0-.47,1.15,1.65,1.65,0,0,0,.47,1.16h0a1.64,1.64,0,0,0,2.3,0Zm-18,15.47a1.62,1.62,0,0,0,.47,1.15h0a1.63,1.63,0,0,0,1.16.48,1.63,1.63,0,0,0,1.15-2.78h0A1.62,1.62,0,0,0,71,27.46a1.65,1.65,0,0,0-1.16.47h0A1.62,1.62,0,0,0,69.37,29.09Z"/><path class="cls-2" d="M1.56,76.91H9.48a4.19,4.19,0,0,1,3.13,1.6,4.07,4.07,0,0,1,.84,2.28v.55a4.07,4.07,0,0,1-1.58,3,4.28,4.28,0,0,1-2.47.86H3.34v3.4a1.64,1.64,0,0,1-1.25,1.57,1.06,1.06,0,0,1-.23,0H1.48a1.59,1.59,0,0,1-1.39-1A1.49,1.49,0,0,1,0,88.72V78.46A1.6,1.6,0,0,1,1.19,77a1.29,1.29,0,0,1,.37-.06Zm1.78,3.31V82h6.77V80.22ZM19,76.91h4.14a5.52,5.52,0,0,1,4,1.6,2.76,2.76,0,0,1,.71,1.6V87a3,3,0,0,1-1.3,2.12,6,6,0,0,1-3.46,1.07H19.19a5.67,5.67,0,0,1-3.85-1.38,2.77,2.77,0,0,1-1-1.94V80.23c0-1.09.75-2,2.24-2.8A6.71,6.71,0,0,1,19,76.91Zm-1.4,3.29v6.73h7V80.2Zm12.71-3.29h.24c.51,0,1.08.39,1.7,1.15,0,0,1.1,1.09,3.26,3.25,2.75-2.78,4.14-4.18,4.18-4.18a1.79,1.79,0,0,1,.77-.22h.24a1.63,1.63,0,0,1,1.41,1,1.77,1.77,0,0,1,.09.48V88.77a1.54,1.54,0,0,1-1,1.31,1.16,1.16,0,0,1-.5.13h-.38a1.55,1.55,0,0,1-1.27-.81,1.79,1.79,0,0,1-.24-1V82.65C37.31,84.22,36.51,85,36.49,85a1.7,1.7,0,0,1-1,.32,2.61,2.61,0,0,1-1.86-1.18c-1-1-1.51-1.52-1.53-1.52v5.95a1.6,1.6,0,0,1-1.3,1.62s-.08,0-.18,0h-.38a1.56,1.56,0,0,1-1.32-.91,1.4,1.4,0,0,1-.16-.63V78.44A1.63,1.63,0,0,1,29.93,77a1.69,1.69,0,0,1,.39-.06Zm14.38,0H55.08a1.63,1.63,0,0,1,1.41,1,1.52,1.52,0,0,1,.1.47v.37A1.65,1.65,0,0,1,55,80.22h-8.5v1.69h6.57a1.66,1.66,0,0,1,1.69,1,1.21,1.21,0,0,1,.13.52v.24a1.6,1.6,0,0,1-1.19,1.49,1.24,1.24,0,0,1-.37.06H46.48v1.69H54.8a1.66,1.66,0,0,1,1.79,1.42v.44a1.51,1.51,0,0,1-1,1.31,1.13,1.13,0,0,1-.5.13H44.62a1.57,1.57,0,0,1-1.38-1,1.28,1.28,0,0,1-.1-.47V78.46A1.6,1.6,0,0,1,44.33,77a1.29,1.29,0,0,1,.37-.06Zm14.38,0h.24a1.61,1.61,0,0,1,1.38,1,1.51,1.51,0,0,1,.16.73v8.32h8.32A1.66,1.66,0,0,1,71,88.33v.44a1.51,1.51,0,0,1-1,1.31,1.13,1.13,0,0,1-.5.13H59a1.57,1.57,0,0,1-1.38-1,1.28,1.28,0,0,1-.1-.47V78.46A1.6,1.6,0,0,1,58.71,77a1.29,1.29,0,0,1,.37-.06Zm17.45,0h4.14a5.52,5.52,0,0,1,4,1.6,2.76,2.76,0,0,1,.71,1.6V87a3,3,0,0,1-1.3,2.12,6,6,0,0,1-3.46,1.07H76.71a5.67,5.67,0,0,1-3.85-1.38,2.77,2.77,0,0,1-1-1.94V80.23c0-1.09.75-2,2.24-2.8a6.71,6.71,0,0,1,2.39-.52Zm-1.4,3.29v6.73h7V80.2Zm17.42-3.29h10.38a1.66,1.66,0,0,1,1.42,1,1.89,1.89,0,0,1,.1.47v.37a1.67,1.67,0,0,1-1.62,1.47H99.39v8.45a1.64,1.64,0,0,1-1.22,1.52l-.27,0h-.37a1.59,1.59,0,0,1-1.36-1,1.77,1.77,0,0,1-.12-.6v-8.4H92.69A1.65,1.65,0,0,1,91.05,79,1.61,1.61,0,0,1,91,78.7v-.23A1.59,1.59,0,0,1,92.18,77a1.29,1.29,0,0,1,.37-.06Zm14.38,0h10.39a1.65,1.65,0,0,1,1.41,1,1.89,1.89,0,0,1,.1.47v.37a1.57,1.57,0,0,1-1,1.34,1.64,1.64,0,0,1-.62.13h-8.49v1.69h6.56a1.66,1.66,0,0,1,1.69,1,1.21,1.21,0,0,1,.13.52v.24a1.6,1.6,0,0,1-1.19,1.49,1.24,1.24,0,0,1-.37.06h-6.82v1.69H117a1.67,1.67,0,0,1,1.8,1.42v.44a1.53,1.53,0,0,1-1,1.31,1.13,1.13,0,0,1-.5.13H106.86a1.57,1.57,0,0,1-1.39-1,1.53,1.53,0,0,1-.1-.47V78.46A1.6,1.6,0,0,1,106.56,77a1.29,1.29,0,0,1,.37-.06Zm18.66,0h5.32a1.66,1.66,0,0,1,1.41,1,1.52,1.52,0,0,1,.1.47v.37a1.55,1.55,0,0,1-1,1.34,1.6,1.6,0,0,1-.61.13h-4.48a4,4,0,0,0-3.82,2.22,3.9,3.9,0,0,0-.2,1.18,3.27,3.27,0,0,0,2,2.9,4.49,4.49,0,0,0,1.76.39h4.53a1.71,1.71,0,0,1,1.74,1.23l0,.26v.37a1.53,1.53,0,0,1-1,1.31,1.1,1.1,0,0,1-.5.13h-5.54a6.69,6.69,0,0,1-4.29-1.75,6.44,6.44,0,0,1-1.45-1.91,6.05,6.05,0,0,1-.72-2.73v-.49a6.44,6.44,0,0,1,2-4.48,6.78,6.78,0,0,1,4.64-1.94Zm9.31,0h.24a1.67,1.67,0,0,1,1.55,1.68v3.32h6.76V78.69a1.7,1.7,0,0,1,1.3-1.76l.3,0h.23a1.62,1.62,0,0,1,1.42,1,1.91,1.91,0,0,1,.09.48V88.77a1.54,1.54,0,0,1-.95,1.31,1.13,1.13,0,0,1-.5.13H145a1.58,1.58,0,0,1-1.41-1.07,2.3,2.3,0,0,1-.11-.71V85.22h-6.76v3.4a1.65,1.65,0,0,1-1.26,1.57,1,1,0,0,1-.23,0h-.38a1.57,1.57,0,0,1-1.38-1,1.28,1.28,0,0,1-.1-.47V78.46A1.6,1.6,0,0,1,134.53,77,1.35,1.35,0,0,1,134.9,76.91Z"/></g></g></svg>